<svg width="81" height="80" viewBox="0 0 81 80" fill="none" xmlns="http://www.w3.org/2000/svg">
<g clip-path="url(#clip0_18_2)">
<path d="M32.3787 40.7062C33.16 41.4875 34.4263 41.4875 35.2075 40.7062L36.6213 39.2925C37.4025 38.5112 37.4025 37.245 36.6213 36.4638L32.1562 32L36.62 27.535C37.4012 26.7537 37.4012 25.4875 36.62 24.7062L35.2062 23.2925C34.425 22.5112 33.1588 22.5112 32.3775 23.2925L25.085 30.585C24.3037 31.3662 24.3037 32.6325 25.085 33.4137L32.3787 40.7062ZM44.38 39.2938L45.7938 40.7075C46.575 41.4888 47.8413 41.4888 48.6225 40.7075L55.915 33.415C56.6963 32.6338 56.6963 31.3675 55.915 30.5863L48.6225 23.2937C47.8413 22.5125 46.575 22.5125 45.7938 23.2937L44.38 24.7075C43.5988 25.4888 43.5988 26.755 44.38 27.5362L48.8438 32L44.38 36.465C43.5988 37.2463 43.5988 38.5125 44.38 39.2938ZM78.5 60H48.1925C48.1 62.4762 46.3537 64 44.1 64H36.5C34.1637 64 32.3725 61.8162 32.4037 60H2.5C1.4 60 0.5 60.9 0.5 62V64C0.5 68.4 4.1 72 8.5 72H72.5C76.9 72 80.5 68.4 80.5 64V62C80.5 60.9 79.6 60 78.5 60ZM72.5 14C72.5 10.7 69.8 8 66.5 8H14.5C11.2 8 8.5 10.7 8.5 14V56H72.5V14ZM64.5 48H16.5V16H64.5V48Z" fill="#2AEBEB"/>
</g>
<defs>
<clipPath id="clip0_18_2">
<rect width="80" height="80" fill="white" transform="translate(0.5)"/>
</clipPath>
</defs>
</svg>
